<?xml version="1.0" encoding="UTF-8" standalone="no"?>
<svg
   width="1280"
   height="640"
   version="1.1"
   viewBox="0 0 1280 640"
   id="svg2"
   sodipodi:docname="shyriiwook.svg"
   inkscape:version="1.3.2 (1:1.3.2+202311252150+091e20ef0f)"
   xml:space="preserve"
   xmlns:inkscape="http://www.inkscape.org/namespaces/inkscape"
   xmlns:sodipodi="http://sodipodi.sourceforge.net/DTD/sodipodi-0.dtd"
   xmlns="http://www.w3.org/2000/svg"
   xmlns:svg="http://www.w3.org/2000/svg"><defs
     id="defs6"><inkscape:path-effect
       effect="mirror_symmetry"
       start_point="640,5.7801352"
       end_point="640,645.78014"
       center_point="640,325.78014"
       id="path-effect10"
       is_visible="true"
       lpeversion="1.2"
       lpesatellites=""
       mode="vertical"
       discard_orig_path="false"
       fuse_paths="false"
       oposite_fuse="false"
       split_items="false"
       split_open="false"
       link_styles="false" /><inkscape:path-effect
       effect="mirror_symmetry"
       start_point="640,0"
       end_point="640,640"
       center_point="640,320"
       id="path-effect9"
       is_visible="true"
       lpeversion="1.2"
       lpesatellites=""
       mode="vertical"
       discard_orig_path="false"
       fuse_paths="false"
       oposite_fuse="true"
       split_items="false"
       split_open="false"
       link_styles="false" /><inkscape:path-effect
       effect="mirror_symmetry"
       start_point="640,0"
       end_point="640,640"
       center_point="640,320"
       id="path-effect7"
       is_visible="true"
       lpeversion="1.2"
       lpesatellites=""
       mode="vertical"
       discard_orig_path="false"
       fuse_paths="false"
       oposite_fuse="true"
       split_items="false"
       split_open="false"
       link_styles="false" /><inkscape:path-effect
       effect="mirror_symmetry"
       start_point="640,0"
       end_point="640,640"
       center_point="640,320"
       id="path-effect4"
       is_visible="true"
       lpeversion="1.2"
       lpesatellites=""
       mode="vertical"
       discard_orig_path="false"
       fuse_paths="false"
       oposite_fuse="true"
       split_items="false"
       split_open="false"
       link_styles="false" /><inkscape:path-effect
       effect="mirror_symmetry"
       start_point="640,0"
       end_point="640,640"
       center_point="640,320"
       id="path-effect3"
       is_visible="true"
       lpeversion="1.2"
       lpesatellites=""
       mode="free"
       discard_orig_path="false"
       fuse_paths="true"
       oposite_fuse="true"
       split_items="false"
       split_open="false"
       link_styles="false" /><inkscape:path-effect
       effect="mirror_symmetry"
       start_point="640,0"
       end_point="640,640"
       center_point="640,320"
       id="path-effect6"
       is_visible="true"
       lpeversion="1.2"
       lpesatellites=""
       mode="free"
       discard_orig_path="false"
       fuse_paths="false"
       oposite_fuse="false"
       split_items="false"
       split_open="false"
       link_styles="false" /><inkscape:path-effect
       effect="mirror_symmetry"
       start_point="861.20624,7.6255029"
       end_point="861.20624,647.6255"
       center_point="861.20624,327.6255"
       id="path-effect2"
       is_visible="true"
       lpeversion="1.2"
       lpesatellites=""
       mode="free"
       discard_orig_path="false"
       fuse_paths="true"
       oposite_fuse="true"
       split_items="false"
       split_open="false"
       link_styles="false" /><inkscape:path-effect
       effect="mirror_symmetry"
       start_point="956.75377,-39.245565"
       end_point="956.75377,600.75444"
       center_point="956.75377,280.75444"
       id="path-effect1"
       is_visible="true"
       lpeversion="1.2"
       lpesatellites=""
       mode="vertical"
       discard_orig_path="false"
       fuse_paths="true"
       oposite_fuse="false"
       split_items="false"
       split_open="false"
       link_styles="false" /><filter
       x="-0.052205125"
       y="-0.042736447"
       width="1.1044102"
       height="1.0991956"
       id="filter21"><feOffset
         in="SourceAlpha"
         result="offA"
         dy="4"
         id="feOffset10" /><feOffset
         in="SourceAlpha"
         result="offB"
         dy="1"
         id="feOffset11" /><feOffset
         in="SourceAlpha"
         result="offC"
         dy="2"
         id="feOffset12" /><feMorphology
         in="offC"
         result="spreadC"
         operator="erode"
         radius="1"
         id="feMorphology12" /><feGaussianBlur
         in="offA"
         result="blurA"
         stdDeviation="2.5"
         id="feGaussianBlur12" /><comment /><feGaussianBlur
         in="offB"
         result="blurB"
         stdDeviation="5"
         id="feGaussianBlur13" /><comment /><feGaussianBlur
         in="spreadC"
         result="blurC"
         stdDeviation="2"
         id="feGaussianBlur14" /><comment /><feFlood
         flood-opacity="0.14"
         result="opA"
         id="feFlood14" /><feFlood
         flood-opacity="0.12"
         result="opB"
         id="feFlood15" /><feFlood
         flood-opacity="0.40"
         result="opC"
         id="feFlood16" /><feComposite
         in="opA"
         in2="blurA"
         result="shA"
         operator="in"
         id="feComposite16" /><feComposite
         in="opB"
         in2="blurB"
         result="shB"
         operator="in"
         id="feComposite17" /><feComposite
         in="opC"
         in2="blurC"
         result="shC"
         operator="in"
         id="feComposite18" /><feMerge
         id="feMerge21"><feMergeNode
           in="shA"
           id="feMergeNode18" /><feMergeNode
           in="shB"
           id="feMergeNode19" /><feMergeNode
           in="shC"
           id="feMergeNode20" /><feMergeNode
           in="SourceGraphic"
           id="feMergeNode21" /></feMerge></filter><filter
       x="-0.05735475"
       y="-0.045255021"
       width="1.1147095"
       height="1.1050415"
       id="filter32"><feOffset
         in="SourceAlpha"
         result="offA"
         dy="4"
         id="feOffset21" /><feOffset
         in="SourceAlpha"
         result="offB"
         dy="1"
         id="feOffset22" /><feOffset
         in="SourceAlpha"
         result="offC"
         dy="2"
         id="feOffset23" /><feMorphology
         in="offC"
         result="spreadC"
         operator="erode"
         radius="1"
         id="feMorphology23" /><feGaussianBlur
         in="offA"
         result="blurA"
         stdDeviation="2.5"
         id="feGaussianBlur23" /><comment /><feGaussianBlur
         in="offB"
         result="blurB"
         stdDeviation="5"
         id="feGaussianBlur24" /><comment /><feGaussianBlur
         in="spreadC"
         result="blurC"
         stdDeviation="2"
         id="feGaussianBlur25" /><comment /><feFlood
         flood-opacity="0.14"
         result="opA"
         id="feFlood25" /><feFlood
         flood-opacity="0.12"
         result="opB"
         id="feFlood26" /><feFlood
         flood-opacity="0.40"
         result="opC"
         id="feFlood27" /><feComposite
         in="opA"
         in2="blurA"
         result="shA"
         operator="in"
         id="feComposite27" /><feComposite
         in="opB"
         in2="blurB"
         result="shB"
         operator="in"
         id="feComposite28" /><feComposite
         in="opC"
         in2="blurC"
         result="shC"
         operator="in"
         id="feComposite29" /><feMerge
         id="feMerge32"><feMergeNode
           in="shA"
           id="feMergeNode29" /><feMergeNode
           in="shB"
           id="feMergeNode30" /><feMergeNode
           in="shC"
           id="feMergeNode31" /><feMergeNode
           in="SourceGraphic"
           id="feMergeNode32" /></feMerge></filter></defs><sodipodi:namedview
     id="namedview4"
     pagecolor="#ffffff"
     bordercolor="#666666"
     borderopacity="1.0"
     inkscape:pageshadow="2"
     inkscape:pageopacity="0.0"
     inkscape:pagecheckerboard="0"
     showgrid="false"
     showguides="true"
     inkscape:guide-bbox="true"
     inkscape:showpageshadow="2"
     inkscape:deskcolor="#d1d1d1"
     inkscape:zoom="0.50000001"
     inkscape:cx="457.99999"
     inkscape:cy="685.99998"
     inkscape:window-width="1920"
     inkscape:window-height="1136"
     inkscape:window-x="0"
     inkscape:window-y="27"
     inkscape:window-maximized="1"
     inkscape:current-layer="svg2"><sodipodi:guide
       position="53.33333,586.66667"
       orientation="-1,0"
       id="guide8"
       inkscape:label=""
       inkscape:locked="false"
       inkscape:color="rgb(0,0,255)" /><sodipodi:guide
       position="53.333333,586.66667"
       orientation="0,1"
       id="guide12"
       inkscape:label=""
       inkscape:locked="false"
       inkscape:color="rgb(0,0,255)" /><sodipodi:guide
       position="53.333333,53.333333"
       orientation="0,1"
       id="guide14"
       inkscape:label=""
       inkscape:locked="false"
       inkscape:color="rgb(0,0,255)" /><sodipodi:guide
       position="1226.6667,586.66667"
       orientation="-1,0"
       id="guide16"
       inkscape:label=""
       inkscape:locked="false"
       inkscape:color="rgb(0,0,255)" /><sodipodi:guide
       position="640,640"
       orientation="-1,0"
       id="guide2"
       inkscape:locked="false"
       inkscape:label=""
       inkscape:color="rgb(0,134,229)" /></sodipodi:namedview><rect
     style="fill:#b26635;fill-opacity:1;fill-rule:evenodd;stroke:none;stroke-width:20.2359;stroke-linecap:round;paint-order:stroke fill markers"
     id="rect5"
     width="1280"
     height="640"
     x="0"
     y="0"
     inkscape:label="background" /><g
     id="g6"
     inkscape:label="wookie"
     inkscape:path-effect="#path-effect10"
     transform="translate(0,-5.7801352)"><path
       id="path6"
       style="display:inline;fill:#413539;fill-opacity:1;filter:url(#filter21)"
       inkscape:label="hair"
       d="M 640,67.228516 V 223.73633 c 3.49295,0 8.04352,-0.30362 24.08984,-10.22461 14.63409,-9.04784 25.28944,-13.64234 33.53711,-13.72461 41.62485,-0.41521 63.31929,49.58777 56.4509,100.05973 -4.50727,-8.62955 -3.69922,-9.16648 -4.41769,-18.03043 -3.20503,4.29299 -4.13336,8.89571 -4.48481,18.88204 -0.79821,-2.6634 -1.45266,-6.34681 -3.6148,-8.90093 -0.7508,4.78287 1.7734,16.29724 4.27505,26.91873 -3.23074,-3.86599 -4.60195,-9.8205 -7.53334,-15.99476 0.19194,8.85144 3.69209,17.08551 4.72066,25.67868 -2.85398,-1.24116 -6.38217,-8.52266 -9.36088,-15.77709 -1.42432,8.10311 1.28106,14.70296 5.89494,25.53432 -6.20643,-3.34146 -6.74301,-6.7371 -10.09334,-10.12631 -0.25357,4.54751 3.93419,13.23472 4.1643,16.09279 -2.39949,-2.25869 -7.38404,-11.90857 -11.04776,-18.83471 0.22953,8.40904 5.13859,17.6495 8.14248,25.3593 -2.92566,-3.3112 -4.9853,-6.78831 -8.42188,-10.83594 -0.46399,-0.54649 8.36818,25.44743 8.36818,25.44743 -12.70388,-23.56905 -13.53148,-25.96038 -17.02834,-32.0861 -0.0727,5.3307 4.88532,12.96271 7.00183,18.88911 -3.18708,-2.61366 -7.63875,-8.1292 -9.10925,-8.51804 1.33303,2.20413 7.0293,11.52145 6.91851,14.63808 -39.80766,-49.40442 -54.64988,-50.62978 -72.20167,-43.84532 -3.0502,1.17902 -3.74629,1.42188 -6.25,1.42188 L 640,350.18573 c 3.48847,0 3.51952,-4.07948 5.55473,-7.82463 26.51569,-48.79351 86.01054,37.68578 101.51758,108.04492 -1.24984,-1.8043 -4.38271,-4.81963 -12.91016,-19.66406 -4.96179,-8.63737 -8.36096,-18.00601 -12.23047,-27.14844 -1.86695,-4.39236 -4.95428,-12.4489 -6.86133,-17.9043 -3.60572,-12.33707 -9.64132,-23.34708 -19.80664,-31.32812 1.09526,4.35629 3.49163,7.33533 8.63281,25.62109 6.63666,23.60453 7.35811,25.65883 11.45704,32.64063 3.50224,5.96546 8.66308,15.01722 10.3164,19.75781 -4.3355,-5.03219 -9.39556,-9.72956 -14.1875,-14.55078 8.07015,11.6875 13.12535,24.75891 14.74024,38.88867 C 704.255,420.22222 661.67299,400.6543 640,400.6543 v 107.92578 c 5.01518,0 15.8418,-9.78906 15.8418,-9.78906 4.42152,5.66387 6.34181,16.35589 6.38281,23.76953 1.96114,-5.78834 4.58982,-9.66747 9.05273,-13.39844 10.39842,11.87181 2.52076,37.04296 -10.20117,49.76758 9.73633,-2.31806 18.42938,-8.49814 26.36133,-14.56641 -0.42142,5.7417 -4.84385,12.64768 -5.76172,14.78711 1.42664,0 16.77189,-5.83945 21.51563,-8.1875 l -5.75977,26.27734 c 50.59237,1.83375 88.74456,-24.10593 116.24414,-58.06054 1.23511,-1.52503 0.0897,12.57792 0.20508,12.69336 23.37559,-42.46669 16.5019,-84.68202 9.5918,-97.18946 12.6169,21.35078 14.29762,33.82138 18.26953,66.48047 10.98229,-34.35656 9.29287,-70.1086 -6.19336,-90.42773 -15.48625,-20.31913 -17.71235,-23.38923 -14.36328,-23.47656 5.55044,-0.14468 1.72716,0.8643 21.24414,2.53515 -38.05582,-14.94879 -36.61058,-43.90645 -32.52735,-53.13672 2.49821,3.15824 6.52156,10.39979 8.82618,19.47461 9.28537,-51.58503 -7.71767,-115.44182 -12.0625,-123.12109 4.3219,0.9806 12.24709,5.93636 14.64843,7.50781 -9.19418,-19.84859 -22.24359,-38.37311 -37.26562,-56.55664 6.58283,1.30331 15.51679,4.68094 25.82226,13.88086 -25.23083,-83.42969 -83.692,-97.38097 -120.05468,-88.58398 16.3061,-13.240526 32.37736,-15.495439 55.58398,-12.917973 -17.42215,-12.791837 -38.28154,-22.652553 -63.44922,-19.433594 1.78801,-1.55013 4.80856,-3.918665 12.91016,-5.203125 C 681.71375,68.437661 658.38899,67.365947 640,67.228516 Z M 646.3457,251.375 c -0.13234,-0.0866 -0.28917,-0.0874 -0.49804,0.01 -5.38411,2.49851 9.05264,14.58709 14.96679,13.49414 2.79025,-0.51565 -3.15184,-2.1928 -5.53711,-3.51758 -8.26175,-4.58862 -8.0052,-9.37998 -8.93164,-9.98633 z M 640,255.36719 v 27.94922 c 22.99824,0 42.37365,7.05839 65.24953,19.87203 -8.06351,-8.36514 -19.57366,-16.20444 -23.38039,-17.45406 18.34059,-3.55075 35.02348,-0.10672 51.36719,4.76757 -5.15908,-7.16164 -10.33366,-11.62713 -19.83594,-13.83593 7.7034,-2.01965 13.37723,1.9061 19.73242,5.71093 -6.50559,-9.19666 -8.81884,-14.67392 -8.49023,-16.46289 1.5297,0.36456 3.14588,1.05841 5.6875,3.26953 -7.1765,-13.81885 -29.07113,-9.45155 -33.76953,-8.33203 C 672.42016,266.9899 658.04809,273.41528 640,255.36719 Z m 68.05471,14.56451 c -1.80914,7.16309 -9.27968,10.00727 -17.19233,10.00727 -6.54848,0 -11.78104,-3.88914 -13.36231,-9.92533 0.94277,-1.80578 3.79994,-2.61466 6.25586,-3.14258 0.84234,3.82219 2.77033,4.6917 6.14648,4.7793 5.4596,0 4.09425,-4.69007 5.60743,-5.875 1.21101,-0.9483 12.54487,2.37329 12.54487,4.15634 z m -18.38674,-4.10748 c 0.77977,2.7e-4 1.41184,0.63234 1.41211,1.41211 -2.7e-4,0.77977 -0.63234,1.41184 -1.41211,1.41211 -0.77977,-2.7e-4 -1.41184,-0.63234 -1.41211,-1.41211 2.7e-4,-0.77977 0.63234,-1.41184 1.41211,-1.41211 z M 640,285.67383 v 3.75 c 19.32781,0 27.51345,7.83086 41.04729,14.10512 C 668.67759,291.34826 654.62829,285.67383 640,285.67383 Z m 0,7.65429 v 4.27344 c 13.8854,0 21.6396,3.80079 36.70312,12.17797 C 666.31123,297.3159 649.64312,293.32812 640,293.32812 Z m 18.75391,42.90429 c -2.68619,-0.79226 -2.40911,1.29115 -0.59375,1.90625 20.85638,7.06676 32.66509,25.52116 34.46875,26.5625 1.80366,1.04134 -10.71663,-21.63847 -33.875,-28.46875 z m -1.95118,8.48261 c -1.93075,0 -1.32348,0.9375 1.97071,1.40625 12.53095,1.78311 23.63179,16.07016 23.5664,14.3711 -0.18272,-4.74747 -15.97798,-15.77735 -25.53711,-15.77735 z m -10.62695,20.66016 c -2.40058,0.43076 -3.17152,3.98437 -6.17578,3.98438 v 16.0625 c 5.37897,0 11.67628,-0.0485 13.51172,-0.35157 4.92401,-0.81306 -0.43084,-1.52309 -4.00977,-1.5664 -2.03183,-0.0246 -3.68065,-0.23306 -3.62695,-1.15039 0.12154,-2.0763 8.84647,-15.44944 1.44141,-16.95313 -0.42068,-0.0854 -0.79769,-0.0869 -1.14063,-0.0254 z M 640,388.46289 v 3.46094 c 20.70907,0 24.42187,1.04196 46.93164,16.54883 C 668.97055,389.1777 658.36941,388.78256 640,388.46289 Z M 640,67.228516 V 223.73633 c -3.49295,0 -8.04352,-0.30362 -24.08984,-10.22461 -14.63409,-9.04784 -25.28944,-13.64234 -33.53711,-13.72461 -41.62485,-0.41521 -63.31929,49.58777 -56.4509,100.05973 4.50727,-8.62955 3.69922,-9.16648 4.41769,-18.03043 3.20503,4.29299 4.13336,8.89571 4.48481,18.88204 0.79821,-2.6634 1.45266,-6.34681 3.6148,-8.90093 0.7508,4.78287 -1.7734,16.29724 -4.27505,26.91873 3.23074,-3.86599 4.60195,-9.8205 7.53334,-15.99476 -0.19194,8.85144 -3.69209,17.08551 -4.72066,25.67868 2.85398,-1.24116 6.38217,-8.52266 9.36088,-15.77709 1.42432,8.10311 -1.28106,14.70296 -5.89494,25.53432 6.20643,-3.34146 6.74301,-6.7371 10.09334,-10.12631 0.25357,4.54751 -3.93419,13.23472 -4.1643,16.09279 2.39949,-2.25869 7.38404,-11.90857 11.04776,-18.83471 -0.22953,8.40904 -5.13859,17.6495 -8.14248,25.3593 2.92566,-3.3112 4.9853,-6.78831 8.42188,-10.83594 0.46399,-0.54649 -8.36818,25.44743 -8.36818,25.44743 12.70388,-23.56905 13.53148,-25.96038 17.02834,-32.0861 0.0727,5.3307 -4.88532,12.96271 -7.00183,18.88911 3.18708,-2.61366 7.63875,-8.1292 9.10925,-8.51804 -1.33303,2.20413 -7.0293,11.52145 -6.91851,14.63808 39.80766,-49.40442 54.64988,-50.62978 72.20167,-43.84532 3.0502,1.17902 3.74629,1.42188 6.25,1.42188 l 4e-5,34.42616 c -3.48847,0 -3.51952,-4.07948 -5.55473,-7.82463 -26.51569,-48.79351 -86.01054,37.68578 -101.51758,108.04492 1.24984,-1.8043 4.38271,-4.81963 12.91016,-19.66406 4.96179,-8.63737 8.36096,-18.00601 12.23047,-27.14844 1.86695,-4.39236 4.95428,-12.4489 6.86133,-17.9043 3.60572,-12.33707 9.64132,-23.34708 19.80664,-31.32812 -1.09526,4.35629 -3.49163,7.33533 -8.63281,25.62109 -6.63666,23.60453 -7.35811,25.65883 -11.45704,32.64063 -3.50224,5.96546 -8.66308,15.01722 -10.3164,19.75781 4.3355,-5.03219 9.39556,-9.72956 14.1875,-14.55078 -8.07015,11.6875 -13.12535,24.75891 -14.74024,38.88867 C 575.745,420.22222 618.32701,400.6543 640,400.6543 v 107.92578 c -5.01518,0 -15.8418,-9.78906 -15.8418,-9.78906 -4.42152,5.66387 -6.34181,16.35589 -6.38281,23.76953 -1.96114,-5.78834 -4.58982,-9.66747 -9.05273,-13.39844 -10.39842,11.87181 -2.52076,37.04296 10.20117,49.76758 -9.73633,-2.31806 -18.42938,-8.49814 -26.36133,-14.56641 0.42142,5.7417 4.84385,12.64768 5.76172,14.78711 -1.42664,0 -16.77189,-5.83945 -21.51563,-8.1875 l 5.75977,26.27734 c -50.59237,1.83375 -88.74456,-24.10593 -116.24414,-58.06054 -1.23511,-1.52503 -0.0897,12.57792 -0.20508,12.69336 -23.37559,-42.46669 -16.5019,-84.68202 -9.5918,-97.18946 -12.6169,21.35078 -14.29762,33.82138 -18.26953,66.48047 -10.98229,-34.35656 -9.29287,-70.1086 6.19336,-90.42773 15.48625,-20.31913 17.71235,-23.38923 14.36328,-23.47656 -5.55044,-0.14468 -1.72716,0.8643 -21.24414,2.53515 38.05582,-14.94879 36.61058,-43.90645 32.52735,-53.13672 -2.49821,3.15824 -6.52156,10.39979 -8.82618,19.47461 -9.28537,-51.58503 7.71767,-115.44182 12.0625,-123.12109 -4.3219,0.9806 -12.24709,5.93636 -14.64843,7.50781 9.19418,-19.84859 22.24359,-38.37311 37.26562,-56.55664 -6.58283,1.30331 -15.51679,4.68094 -25.82226,13.88086 25.23083,-83.42969 83.692,-97.38097 120.05468,-88.58398 C 573.87749,96.019244 557.80623,93.764331 534.59961,96.341797 552.02176,83.54996 572.88115,73.689244 598.04883,76.908203 596.26082,75.358073 593.24027,72.989538 585.13867,71.705078 598.28625,68.437661 621.61101,67.365947 640,67.228516 Z M 633.6543,251.375 c 0.13234,-0.0866 0.28917,-0.0874 0.49804,0.01 5.38411,2.49851 -9.05264,14.58709 -14.96679,13.49414 -2.79025,-0.51565 3.15184,-2.1928 5.53711,-3.51758 8.26175,-4.58862 8.0052,-9.37998 8.93164,-9.98633 z M 640,255.36719 v 27.94922 c -22.99824,0 -42.37365,7.05839 -65.24953,19.87203 8.06351,-8.36514 19.57366,-16.20444 23.38039,-17.45406 -18.34059,-3.55075 -35.02348,-0.10672 -51.36719,4.76757 5.15908,-7.16164 10.33366,-11.62713 19.83594,-13.83593 -7.7034,-2.01965 -13.37723,1.9061 -19.73242,5.71093 6.50559,-9.19666 8.81884,-14.67392 8.49023,-16.46289 -1.5297,0.36456 -3.14588,1.05841 -5.6875,3.26953 7.1765,-13.81885 29.07113,-9.45155 33.76953,-8.33203 24.14039,6.13834 38.51246,12.56372 56.56055,-5.48437 z m -68.05471,14.56451 c 1.80914,7.16309 9.27968,10.00727 17.19233,10.00727 6.54848,0 11.78104,-3.88914 13.36231,-9.92533 -0.94277,-1.80578 -3.79994,-2.61466 -6.25586,-3.14258 -0.84234,3.82219 -2.77033,4.6917 -6.14648,4.7793 -5.4596,0 -4.09425,-4.69007 -5.60743,-5.875 -1.21101,-0.9483 -12.54487,2.37329 -12.54487,4.15634 z m 18.38674,-4.10748 c -0.77977,2.7e-4 -1.41184,0.63234 -1.41211,1.41211 2.7e-4,0.77977 0.63234,1.41184 1.41211,1.41211 0.77977,-2.7e-4 1.41184,-0.63234 1.41211,-1.41211 -2.7e-4,-0.77977 -0.63234,-1.41184 -1.41211,-1.41211 z M 640,285.67383 v 3.75 c -19.32781,0 -27.51345,7.83086 -41.04729,14.10512 12.3697,-12.18069 26.419,-17.85512 41.04729,-17.85512 z m 0,7.65429 v 4.27344 c -13.8854,0 -21.6396,3.80079 -36.70312,12.17797 10.39189,-12.46363 27.06,-16.45141 36.70312,-16.45141 z m -18.75391,42.90429 c 2.68619,-0.79226 2.40911,1.29115 0.59375,1.90625 -20.85638,7.06676 -32.66509,25.52116 -34.46875,26.5625 -1.80366,1.04134 10.71663,-21.63847 33.875,-28.46875 z m 1.95118,8.48261 c 1.93075,0 1.32348,0.9375 -1.97071,1.40625 -12.53095,1.78311 -23.63179,16.07016 -23.5664,14.3711 0.18272,-4.74747 15.97798,-15.77735 25.53711,-15.77735 z m 10.62695,20.66016 c 2.40058,0.43076 3.17152,3.98437 6.17578,3.98438 v 16.0625 c -5.37897,0 -11.67628,-0.0485 -13.51172,-0.35157 -4.92401,-0.81306 0.43084,-1.52309 4.00977,-1.5664 2.03183,-0.0246 3.68065,-0.23306 3.62695,-1.15039 -0.12154,-2.0763 -8.84647,-15.44944 -1.44141,-16.95313 0.42068,-0.0854 0.79769,-0.0869 1.14063,-0.0254 z M 640,388.46289 v 3.46094 c -20.70907,0 -24.42187,1.04196 -46.93164,16.54883 C 611.02945,389.1777 621.63059,388.78256 640,388.46289 Z"
       sodipodi:nodetypes="ccsscccccccccccccscccccsccscscccsscccccccccccccscccssccccccccccccccssscccccccccccccsccsscsccssccccccccsszsssssccccsssccssss"
       inkscape:original-d="M 640,67.228516 V 223.73633 c 3.49295,0 8.04352,-0.30362 24.08984,-10.22461 14.63409,-9.04784 25.28944,-13.64234 33.53711,-13.72461 41.62485,-0.41521 63.31929,49.58777 56.4509,100.05973 -4.50727,-8.62955 -3.69922,-9.16648 -4.41769,-18.03043 -3.20503,4.29299 -4.13336,8.89571 -4.48481,18.88204 -0.79821,-2.6634 -1.45266,-6.34681 -3.6148,-8.90093 -0.7508,4.78287 1.7734,16.29724 4.27505,26.91873 -3.23074,-3.86599 -4.60195,-9.8205 -7.53334,-15.99476 0.19194,8.85144 3.69209,17.08551 4.72066,25.67868 -2.85398,-1.24116 -6.38217,-8.52266 -9.36088,-15.77709 -1.42432,8.10311 1.28106,14.70296 5.89494,25.53432 -6.20643,-3.34146 -6.74301,-6.7371 -10.09334,-10.12631 -0.25357,4.54751 3.93419,13.23472 4.1643,16.09279 -2.39949,-2.25869 -7.38404,-11.90857 -11.04776,-18.83471 0.22953,8.40904 5.13859,17.6495 8.14248,25.3593 -2.92566,-3.3112 -4.9853,-6.78831 -8.42188,-10.83594 -0.46399,-0.54649 8.36818,25.44743 8.36818,25.44743 -12.70388,-23.56905 -13.53148,-25.96038 -17.02834,-32.0861 -0.0727,5.3307 4.88532,12.96271 7.00183,18.88911 -3.18708,-2.61366 -7.63875,-8.1292 -9.10925,-8.51804 1.33303,2.20413 7.0293,11.52145 6.91851,14.63808 -39.80766,-49.40442 -54.64988,-50.62978 -72.20167,-43.84532 -3.0502,1.17902 -3.74629,1.42188 -6.25,1.42188 L 640,350.18573 c 3.48847,0 3.51952,-4.07948 5.55473,-7.82463 26.51569,-48.79351 86.01054,37.68578 101.51758,108.04492 -1.24984,-1.8043 -4.38271,-4.81963 -12.91016,-19.66406 -4.96179,-8.63737 -8.36096,-18.00601 -12.23047,-27.14844 -1.86695,-4.39236 -4.95428,-12.4489 -6.86133,-17.9043 -3.60572,-12.33707 -9.64132,-23.34708 -19.80664,-31.32812 1.09526,4.35629 3.49163,7.33533 8.63281,25.62109 6.63666,23.60453 7.35811,25.65883 11.45704,32.64063 3.50224,5.96546 8.66308,15.01722 10.3164,19.75781 -4.3355,-5.03219 -9.39556,-9.72956 -14.1875,-14.55078 8.07015,11.6875 13.12535,24.75891 14.74024,38.88867 C 704.255,420.22222 661.67299,400.6543 640,400.6543 v 107.92578 c 5.01518,0 15.8418,-9.78906 15.8418,-9.78906 4.42152,5.66387 6.34181,16.35589 6.38281,23.76953 1.96114,-5.78834 4.58982,-9.66747 9.05273,-13.39844 10.39842,11.87181 2.52076,37.04296 -10.20117,49.76758 9.73633,-2.31806 18.42938,-8.49814 26.36133,-14.56641 -0.42142,5.7417 -4.84385,12.64768 -5.76172,14.78711 1.42664,0 16.77189,-5.83945 21.51563,-8.1875 l -5.75977,26.27734 c 50.59237,1.83375 88.74456,-24.10593 116.24414,-58.06054 1.23511,-1.52503 0.0897,12.57792 0.20508,12.69336 23.37559,-42.46669 16.5019,-84.68202 9.5918,-97.18946 12.6169,21.35078 14.29762,33.82138 18.26953,66.48047 10.98229,-34.35656 9.29287,-70.1086 -6.19336,-90.42773 -15.48625,-20.31913 -17.71235,-23.38923 -14.36328,-23.47656 5.55044,-0.14468 1.72716,0.8643 21.24414,2.53515 -38.05582,-14.94879 -36.61058,-43.90645 -32.52735,-53.13672 2.49821,3.15824 6.52156,10.39979 8.82618,19.47461 9.28537,-51.58503 -7.71767,-115.44182 -12.0625,-123.12109 4.3219,0.9806 12.24709,5.93636 14.64843,7.50781 -9.19418,-19.84859 -22.24359,-38.37311 -37.26562,-56.55664 6.58283,1.30331 15.51679,4.68094 25.82226,13.88086 -25.23083,-83.42969 -83.692,-97.38097 -120.05468,-88.58398 16.3061,-13.240526 32.37736,-15.495439 55.58398,-12.917973 -17.42215,-12.791837 -38.28154,-22.652553 -63.44922,-19.433594 1.78801,-1.55013 4.80856,-3.918665 12.91016,-5.203125 C 681.71375,68.437661 658.38899,67.365947 640,67.228516 Z M 646.3457,251.375 c -0.13234,-0.0866 -0.28917,-0.0874 -0.49804,0.01 -5.38411,2.49851 9.05264,14.58709 14.96679,13.49414 2.79025,-0.51565 -3.15184,-2.1928 -5.53711,-3.51758 -8.26175,-4.58862 -8.0052,-9.37998 -8.93164,-9.98633 z M 640,255.36719 v 27.94922 c 22.99824,0 42.37365,7.05839 65.24953,19.87203 -8.06351,-8.36514 -19.57366,-16.20444 -23.38039,-17.45406 18.34059,-3.55075 35.02348,-0.10672 51.36719,4.76757 -5.15908,-7.16164 -10.33366,-11.62713 -19.83594,-13.83593 7.7034,-2.01965 13.37723,1.9061 19.73242,5.71093 -6.50559,-9.19666 -8.81884,-14.67392 -8.49023,-16.46289 1.5297,0.36456 3.14588,1.05841 5.6875,3.26953 -7.1765,-13.81885 -29.07113,-9.45155 -33.76953,-8.33203 C 672.42016,266.9899 658.04809,273.41528 640,255.36719 Z m 68.05471,14.56451 c -1.80914,7.16309 -9.27968,10.00727 -17.19233,10.00727 -6.54848,0 -11.78104,-3.88914 -13.36231,-9.92533 0.94277,-1.80578 3.79994,-2.61466 6.25586,-3.14258 0.84234,3.82219 2.77033,4.6917 6.14648,4.7793 5.4596,0 4.09425,-4.69007 5.60743,-5.875 1.21101,-0.9483 12.54487,2.37329 12.54487,4.15634 z m -18.38674,-4.10748 c 0.77977,2.7e-4 1.41184,0.63234 1.41211,1.41211 -2.7e-4,0.77977 -0.63234,1.41184 -1.41211,1.41211 -0.77977,-2.7e-4 -1.41184,-0.63234 -1.41211,-1.41211 2.7e-4,-0.77977 0.63234,-1.41184 1.41211,-1.41211 z M 640,285.67383 v 3.75 c 19.32781,0 27.51345,7.83086 41.04729,14.10512 C 668.67759,291.34826 654.62829,285.67383 640,285.67383 Z m 0,7.65429 v 4.27344 c 13.8854,0 21.6396,3.80079 36.70312,12.17797 C 666.31123,297.3159 649.64312,293.32812 640,293.32812 Z m 18.75391,42.90429 c -2.68619,-0.79226 -2.40911,1.29115 -0.59375,1.90625 20.85638,7.06676 32.66509,25.52116 34.46875,26.5625 1.80366,1.04134 -10.71663,-21.63847 -33.875,-28.46875 z m -1.95118,8.48261 c -1.93075,0 -1.32348,0.9375 1.97071,1.40625 12.53095,1.78311 23.63179,16.07016 23.5664,14.3711 -0.18272,-4.74747 -15.97798,-15.77735 -25.53711,-15.77735 z m -10.62695,20.66016 c -2.40058,0.43076 -3.17152,3.98437 -6.17578,3.98438 v 16.0625 c 5.37897,0 11.67628,-0.0485 13.51172,-0.35157 4.92401,-0.81306 -0.43084,-1.52309 -4.00977,-1.5664 -2.03183,-0.0246 -3.68065,-0.23306 -3.62695,-1.15039 0.12154,-2.0763 8.84647,-15.44944 1.44141,-16.95313 -0.42068,-0.0854 -0.79769,-0.0869 -1.14063,-0.0254 z M 640,388.46289 v 3.46094 c 20.70907,0 24.42187,1.04196 46.93164,16.54883 C 668.97055,389.1777 658.36941,388.78256 640,388.46289 Z" /><path
       id="path3"
       style="display:inline;fill:#615856;filter:url(#filter32)"
       inkscape:label="highlight"
       d="m 639.99609,67.228516 v 30.863281 c 10e-4,0.0013 0.003,0.0026 0.004,0.0039 14.6865,-13.685817 0.80092,-12.452644 25.55859,-30 -0.0188,-0.0011 -0.0378,-8.27e-4 -0.0566,-0.002 C 656.8839,67.577018 647.99418,67.28826 640,67.228516 Z m 51.19336,9.066406 c -3.01302,0.01345 -6.09232,0.210912 -9.23828,0.613281 -5.26674,2.469396 -9.65277,6.985199 -14.68555,12.365235 -9.9839,10.67282 -16.47077,27.091012 -17.32031,43.833982 -0.45164,8.90117 0.37553,9.16498 2.1875,0.69531 2.29125,-10.70989 9.39404,-23.2897 17.47266,-30.94531 8.08901,-7.665435 15.7609,-11.896735 26.43555,-14.582029 10.79771,-3.401427 26.22664,-0.694491 38.02929,0.626953 -0.005,-0.0027 -0.009,-0.0051 -0.0137,-0.0078 -1.20428,-0.710299 -2.44545,-1.382411 -3.66016,-2.085937 C 718.72003,80.504123 705.73159,76.23 691.18945,76.294922 Z m -8.7832,29.035158 -2.88477,3.125 c -3.6976,4.00558 -7.072,9.02359 -11.9082,17.70898 -11.50303,20.65849 -18.66304,45.08221 -18.52734,63.19336 0.0571,7.61748 0.25812,7.3921 2.6875,-3 4.33086,-18.52623 16.50084,-38.42125 29.44336,-48.13476 15.94295,-11.9654 32.92378,-17.16737 53.49609,-16.38672 14.95095,0.56734 26.87191,3.81301 36.55078,9.86914 -1.75519,-1.60687 -3.54887,-3.04224 -5.34375,-4.46875 -0.66944,-0.53282 -1.32959,-1.10645 -2.0039,-1.61524 -1.8164,-1.36777 -3.65402,-2.61562 -5.5,-3.8125 -0.61169,-0.39779 -1.22157,-0.80588 -1.83594,-1.18554 -1.97476,-1.21632 -3.9625,-2.34576 -5.95899,-3.38086 -0.40466,-0.21046 -0.80954,-0.414 -1.21484,-0.61719 -2.20145,-1.10035 -4.4093,-2.12575 -6.62305,-3.02148 -0.002,-7.8e-4 -0.004,-0.001 -0.006,-0.002 -6.5e-4,-4e-5 -10e-4,5e-5 -0.002,0 -4.55687,-0.32088 -9.10632,-0.26937 -13.63672,-0.27539 -16.2522,-0.0216 -30.69996,4.73794 -43.67578,14.38672 -5.25828,3.91008 -10.74023,9.2591 -10.74023,10.47852 0,0.31059 -1.90052,2.55546 -4.22266,4.98828 -2.32214,2.43282 -5.27495,6.47325 -6.5625,8.98047 -1.83264,3.56866 -2.3483,4.17175 -2.375,2.77539 -0.0619,-3.22987 1.96984,-8.54356 5.50977,-14.40625 2.11142,-3.49694 4.56985,-9.02457 6.23242,-14.01563 1.50987,-4.5326 4.17573,-11.15392 5.92383,-14.71289 z m 47.52344,36.23633 c -15.64953,0.67509 -32.64859,6.22271 -45.13867,14.73047 -7.43327,5.0632 -16.70694,14.98249 -21.17188,22.64453 -1.99897,3.43029 -1.29491,2.74965 3.59766,-3.47266 12.10438,-15.39431 29.85095,-25.97756 51.41601,-30.66406 8.92523,-1.93965 29.99642,-1.77205 38.26172,0.30469 6.68698,1.68012 7.60259,1.81417 6.00977,0.88085 -4.34549,-2.54623 -21.90131,-4.90149 -32.97461,-4.42382 z m 9.9375,8.22656 c -2.92366,-0.0588 -2.08723,0.71392 2.98047,1.75976 3.20784,0.66205 7.23828,1.85726 8.95703,2.6543 l 3.125,1.44922 -4.16602,-0.50977 c -8.14634,-0.99685 -30.12187,-0.52216 -36.24609,0.78321 -22.26155,4.74499 -40.37127,16.57187 -51.7168,33.77539 -3.74015,5.67125 -7.58436,13.52203 -8.58594,17.53515 -0.71529,2.86606 0.0242,2.34178 3.11719,-2.21289 10.84683,-15.97264 28.931,-27.62836 47.89453,-30.86914 13.93016,-2.38056 29.55304,-0.72985 42.90235,4.53516 5.23435,2.06445 5.8336,1.39776 2.24804,-2.50195 l -3.08593,-3.35352 3.47265,0.48633 c 1.90973,0.26822 4.09744,0.64138 4.86133,0.82812 1.01238,0.24748 0.74378,-0.22726 -0.98828,-1.75195 -11.08769,-9.76023 -51.52741,-7.57062 -72.27539,3.91406 -5.7823,3.20069 -4.07257,1.03951 3.02929,-3.83007 10.31647,-7.0738 18.31256,-10.60593 29.60938,-13.07813 4.7282,-1.03472 8.80491,-1.28944 20.48633,-1.27734 15.63005,0.0162 22.5934,0.89086 32.72851,4.10937 2.8151,0.89396 5.11914,1.37651 5.11914,1.07227 0,-0.75597 -6.39199,-4.94044 -11.46093,-7.50196 -5.82766,-2.94487 -12.1185,-4.93907 -17.84571,-5.6582 -1.79292,-0.22513 -3.1856,-0.33782 -4.16015,-0.35742 z m 27.90039,26.02344 c -1.12146,0 -0.85023,0.48105 1.42773,2.53906 6.08,5.49287 12.14228,13.64058 21.54492,28.95508 2.07556,3.38051 5.75678,8.30242 8.17969,10.9375 2.42292,2.63503 4.59214,4.79101 4.82227,4.79101 0.23013,0 -0.54503,-1.01649 -1.72461,-2.25781 -2.64486,-2.78327 -4.1372,-5.72982 -8.6211,-17.02148 -4.51836,-12.10045 -10.72977,-26.55082 -25.6289,-27.94336 z m -23.42774,10.75976 c -0.36382,0.11662 0.26909,1.45006 1.88282,3.67774 2.93316,4.04912 8.22046,7.78605 17.31836,12.24218 6.80199,3.33165 10.1268,4.65308 9.03906,3.59375 -0.15914,-0.15499 -5.75738,-3.94588 -12.44141,-8.42382 -6.68398,-4.47797 -13.01215,-8.93933 -14.0625,-9.91602 -0.94109,-0.8751 -1.51803,-1.2438 -1.73633,-1.17383 z m -13.29492,1.31641 c -0.11995,-0.0484 -0.19228,-0.0292 -0.21484,0.0566 -0.0902,0.34329 0.60034,1.75033 2.09375,4.14648 2.67546,4.29281 8.83483,9.78618 17.14648,15.29297 12.89774,8.54527 18.6873,11.41782 10.39649,5.15821 -2.11082,-1.59368 -3.70764,-3.02674 -3.54883,-3.18555 0.49235,-0.49235 14.19047,7.43024 19.78125,11.4414 10.87599,7.80319 15.02617,12.13659 20.76172,21.67969 4.67486,7.77832 4.7518,9.23577 0.13672,2.60547 -3.30375,-4.74631 -14.14835,-15.91793 -18.01368,-18.55664 -1.33677,-0.91259 1.02842,1.91171 5.25586,6.27734 8.13656,8.40251 13.26196,14.92812 19.3711,24.65821 5.93828,9.458 9.05127,18.50628 10.81054,31.41601 1.04582,7.6742 2.04505,7.35602 1.23243,-0.39258 -2.00399,-19.10843 -9.67004,-39.70679 -19.92579,-53.53906 -8.21704,-11.0826 -16.57195,-17.28364 -38.83984,-28.82617 -15.49228,-8.03041 -19.40287,-10.62118 -24.0625,-15.93555 -1.22515,-1.3973 -2.02099,-2.15174 -2.38086,-2.29687 z m -0.48633,17.9668 c -0.18465,0.18462 2.09933,1.83288 5.07422,3.6621 17.6511,10.85352 36.93023,27.32523 47.72071,40.77344 2.92723,3.64828 3.99637,4.34792 2.12695,1.39063 -7.79952,-12.33842 -22.5036,-26.68806 -36.80078,-35.91407 -6.98662,-4.50842 -17.67722,-10.35597 -18.1211,-9.9121 z m 10.08789,19.09374 c 1.789,2.80178 3.38422,5.81948 4.85743,8.9629 0.003,0.007 0.008,0.014 0.0117,0.0215 6.26878,3.23001 13.99192,8.08699 18.9004,12.27539 11.56502,9.8685 26.2991,30.94303 31.50781,45.07031 0.67204,1.82275 1.37591,3.15925 1.56445,2.97071 1.00763,-1.00764 -5.35666,-17.48818 -10.27344,-26.60352 -9.73972,-18.05681 -27.6549,-34.29263 -46.56836,-42.69727 z m 13.41016,22.5586 c -0.30042,-0.0648 -0.50314,-0.0633 -0.58398,0.0176 -0.19126,0.19126 1.30769,1.35273 3.33203,2.58203 11.80617,7.16941 19.4497,15.07889 24.50195,25.35742 4.41559,8.98318 6.13227,16.23461 6.16797,26.04297 0.0273,7.49128 -0.17563,8.7008 -3.27344,19.53125 -4.64907,16.25398 -5.99333,23.23835 -6.47656,33.63672 -0.50443,10.85477 0.73951,19.70264 4.34375,30.90039 3.2692,10.15687 8.23777,19.6806 18.09961,34.69336 10.40193,15.83488 16.63266,26.69221 21.51172,37.48437 3.91265,8.65463 7.66687,19.14283 7.92969,22.08203 0.19801,-2.41267 0.32751,-4.77183 0.39062,-7.06836 1.1e-4,-0.004 -1.1e-4,-0.009 0,-0.0137 2e-5,-6.7e-4 -2e-5,-10e-4 0,-0.002 0.0629,-2.3 0.0597,-4.53682 -0.006,-6.69922 -0.0988,-2.62733 -0.25047,-4.70287 -0.41016,-6.71094 -0.003,-0.0298 -0.009,-0.0542 -0.0117,-0.084 -0.29259,-3.22613 -0.73202,-6.18707 -1.24024,-8.95508 -0.19225,-1.05203 -0.41482,-2.00315 -0.63086,-2.98242 -0.4102,-1.84571 -0.84519,-3.58326 -1.32031,-5.14844 -0.2243,-0.74273 -0.44317,-1.50828 -0.67774,-2.18359 -0.71978,-2.05878 -1.46944,-3.93113 -2.23046,-5.3086 -2.62992,-4.72269 -6.47371,-10.88473 -9.83594,-15.4414 -2.11452,-2.86571 -5.75132,-7.79237 -8.08008,-10.94922 -2.32876,-3.15686 -5.09686,-7.30317 -6.15234,-9.21289 l -1.91992,-3.47266 2.9746,3.125 c 1.63536,1.71875 6.58301,6.25231 10.9961,10.07422 5.92468,5.13105 9.0245,8.43681 11.8457,12.63281 2.10139,3.12546 3.9292,5.57276 4.0625,5.43946 0.58063,-0.58063 -4.13787,-10.41286 -7.23047,-15.06641 -1.86129,-2.80077 -6.6926,-8.37435 -10.73633,-12.38477 -8.17738,-8.11 -10.79985,-11.61921 -14.23437,-19.05273 -1.94799,-4.21617 -5.29197,-14.6345 -6.75781,-21.05078 -0.57639,-2.523 0.58645,-1.79466 1.94531,1.21875 0.68992,1.52998 1.72843,3.17125 2.30859,3.64648 0.90957,0.74509 0.98152,0.62398 0.52735,-0.87304 -2.53447,-8.35408 -3.17163,-12.62364 -3.11133,-20.83399 0.0351,-4.77426 0.3008,-9.46115 0.58984,-10.41601 l 0.52539,-1.73633 0.37891,1.73633 c 0.20837,0.95486 0.75217,4.23546 1.20898,7.29101 1.30197,8.7088 5.82527,20.21744 9.68946,24.6543 1.70049,1.9525 1.66153,1.7488 -0.58789,-3.125 -3.19262,-6.91729 -4.09498,-11.70483 -5.63282,-29.86133 -2.51529,-29.6972 -7.72014,-49.67253 -16.1914,-62.15234 -3.63086,-5.34896 -8.93658,-11.0926 -13.29883,-14.39453 -3.68743,-2.79117 -10.59627,-6.5131 -12.69922,-6.9668 z m 7.48633,86.72461 c -0.37999,-0.27859 -0.46111,4.79586 -0.28906,15.1914 0.55032,33.25012 1.08061,38.65288 5.16992,52.68165 4.19425,14.38888 7.91114,22.62638 18.37305,40.7207 10.20054,17.64235 15.30689,28.90884 19.17187,42.29492 2.05445,7.11543 2.49833,5.7487 0.6543,-2.01562 -2.29552,-9.66536 -7.79293,-23.36551 -16.77735,-41.81055 -11.64596,-23.90921 -14.08009,-29.9809 -17.61914,-43.95508 -2.96784,-11.71884 -4.23366,-20.5647 -6.60547,-46.17969 -1.02014,-11.0173 -1.69813,-16.64915 -2.07812,-16.92773 z m -19.91406,59.04297 c -0.0734,0.12042 0.25805,0.93582 1.05273,2.50195 4.67585,9.21501 12.2495,30.23649 15.71875,43.63086 4.68088,18.0723 5.48848,32.07677 2.83984,49.25195 -2.55737,16.58364 -10.37177,37.5582 -19.19531,51.5293 -3.6973,5.85429 -2.07143,4.99305 6.52344,-3.45508 16.2031,-15.92645 23.52109,-34.88921 22.4375,-58.14453 -0.7274,-15.61107 -4.57153,-33.35608 -10.53906,-48.65234 -3.52738,-9.04152 -11.56747,-25.66468 -15.34571,-31.72852 -2.12046,-3.4033 -3.36977,-5.1343 -3.49218,-4.93359 z m -73.52149,17.39258 c -0.12655,0.12651 1.85753,1.6221 4.4082,3.32421 6.16974,4.11719 16.1782,13.8147 20.30665,19.67383 5.25909,7.46383 7.19928,12.85506 10.10156,28.08399 0.16377,0.85938 0.49268,1.5625 0.73242,1.5625 0.70423,0 -0.35945,-10.16059 -1.55078,-14.81446 -3.16879,-12.37861 -12.35678,-24.66246 -24.60547,-32.89453 -3.56473,-2.39578 -9.04983,-5.2783 -9.39258,-4.93554 z m -27.24219,3.76953 c -0.13638,0.10678 -0.14856,0.59695 -0.15429,1.39062 -0.0246,3.40217 3.04403,14.58047 5.88672,21.44336 10.57273,25.52503 13.85493,35.7864 14.61914,45.70313 0.21153,2.74487 0.57553,6.08507 0.80859,7.42187 l 0.42383,2.42969 0.54101,-2.77735 c 1.99912,-10.25914 -1.31284,-31.7441 -7.3125,-47.4414 -2.66777,-6.97996 -8.65508,-18.97959 -12.53906,-25.12891 -1.17759,-1.86442 -1.78112,-2.80624 -2.09179,-3.01758 -0.0777,-0.0528 -0.13618,-0.059 -0.18165,-0.0234 z m 11.01172,1.47656 c -0.0986,0.10152 -0.0118,0.44666 0.19922,0.98437 1.416,3.60877 8.22201,16.61743 14.65235,28.00196 6.58137,11.65199 11.19794,21.90238 14.58984,32.39453 2.63547,8.15229 5.43643,19.37704 6.30078,25.2539 l 0.50977,3.47266 0.63867,-2.43164 c 0.35087,-1.33681 0.66782,-6.80516 0.70312,-12.15234 0.0498,-7.52983 -0.27575,-11.3171 -1.44336,-16.79688 -4.24446,-19.92008 -12.93577,-35.63756 -28.58984,-51.70508 -5.29977,-5.43973 -7.26478,-7.32604 -7.56055,-7.02148 z m 60.21094,28.0625 c -0.0909,-0.0443 -0.17013,-0.035 -0.23633,0.0312 -0.14737,0.14737 0.36612,2.2857 1.14063,4.75195 3.48742,11.10498 4.35298,17.11585 4.39648,30.52539 0.0471,14.51114 -0.84902,20.23952 -4.83203,30.90235 -2.69624,7.21803 -1.41344,6.09815 1.76758,-1.54297 4.90846,-11.79071 6.81262,-29.61902 4.56836,-42.78516 -1.47494,-8.65283 -5.44189,-21.21867 -6.80469,-21.88281 z m 64.3418,16.70312 c -0.19963,0.19963 0.74359,3.10703 2.0957,6.46094 3.95332,9.80616 8.5364,24.73312 10.17969,33.1543 1.64951,8.45302 2.14189,23.19071 1.0664,31.9414 -0.31683,2.57812 -0.42069,4.6875 -0.23046,4.6875 0.53305,0 3.13317,-8.22594 3.95117,-12.5 1.28239,-6.70048 0.97042,-18.41458 -0.66407,-24.9707 -2.22855,-8.93908 -15.30768,-39.86419 -16.39843,-38.77344 z m -48.48633,1.42774 c -0.45191,4.39625 3.51627,19.00135 -0.15234,42.17578 -1.99645,12.61123 -8.65209,28.64585 -16.63282,40.07031 -6.591,9.43511 6.4136,1.76571 9.33203,-0.5918 5.28489,-4.26907 16.71777,-29.49399 10.87891,-67.43164 -0.88648,-5.75979 -2.80216,-13.27627 -3.42578,-14.22265 z M 640.00391,67.228516 v 30.863281 c -10e-4,0.0013 -0.003,0.0026 -0.004,0.0039 -14.6865,-13.685817 -0.80092,-12.452644 -25.55859,-30 0.0188,-0.0011 0.0378,-8.27e-4 0.0566,-0.002 C 623.1161,67.577018 632.00582,67.28826 640,67.228516 Z m -51.19336,9.066406 c 3.01302,0.01345 6.09232,0.210912 9.23828,0.613281 5.26674,2.469396 9.65277,6.985199 14.68555,12.365235 9.9839,10.67282 16.47077,27.091012 17.32031,43.833982 0.45164,8.90117 -0.37553,9.16498 -2.1875,0.69531 -2.29125,-10.70989 -9.39404,-23.2897 -17.47266,-30.94531 -8.08901,-7.665435 -15.7609,-11.896735 -26.43555,-14.582029 -10.79771,-3.401427 -26.22664,-0.694491 -38.02929,0.626953 0.005,-0.0027 0.009,-0.0051 0.0137,-0.0078 1.20428,-0.710299 2.44545,-1.382411 3.66016,-2.085937 11.67642,-6.304484 24.66486,-10.578607 39.207,-10.513685 z m 8.7832,29.035158 2.88477,3.125 c 3.6976,4.00558 7.072,9.02359 11.9082,17.70898 11.50303,20.65849 18.66304,45.08221 18.52734,63.19336 -0.0571,7.61748 -0.25812,7.3921 -2.6875,-3 -4.33086,-18.52623 -16.50084,-38.42125 -29.44336,-48.13476 -15.94295,-11.9654 -32.92378,-17.16737 -53.49609,-16.38672 -14.95095,0.56734 -26.87191,3.81301 -36.55078,9.86914 1.75519,-1.60687 3.54887,-3.04224 5.34375,-4.46875 0.66944,-0.53282 1.32959,-1.10645 2.0039,-1.61524 1.8164,-1.36777 3.65402,-2.61562 5.5,-3.8125 0.61169,-0.39779 1.22157,-0.80588 1.83594,-1.18554 1.97476,-1.21632 3.9625,-2.34576 5.95899,-3.38086 0.40466,-0.21046 0.80954,-0.414 1.21484,-0.61719 2.20145,-1.10035 4.4093,-2.12575 6.62305,-3.02148 0.002,-7.8e-4 0.004,-0.001 0.006,-0.002 6.5e-4,-4e-5 10e-4,5e-5 0.002,0 4.55687,-0.32088 9.10632,-0.26937 13.63672,-0.27539 16.2522,-0.0216 30.69996,4.73794 43.67578,14.38672 5.25828,3.91008 10.74023,9.2591 10.74023,10.47852 0,0.31059 1.90052,2.55546 4.22266,4.98828 2.32214,2.43282 5.27495,6.47325 6.5625,8.98047 1.83264,3.56866 2.3483,4.17175 2.375,2.77539 0.0619,-3.22987 -1.96984,-8.54356 -5.50977,-14.40625 -2.11142,-3.49694 -4.56985,-9.02457 -6.23242,-14.01563 -1.50987,-4.5326 -4.17573,-11.15392 -5.92383,-14.71289 z m -47.52344,36.23633 c 15.64953,0.67509 32.64859,6.22271 45.13867,14.73047 7.43327,5.0632 16.70694,14.98249 21.17188,22.64453 1.99897,3.43029 1.29491,2.74965 -3.59766,-3.47266 -12.10438,-15.39431 -29.85095,-25.97756 -51.41601,-30.66406 -8.92523,-1.93965 -29.99642,-1.77205 -38.26172,0.30469 -6.68698,1.68012 -7.60259,1.81417 -6.00977,0.88085 4.34549,-2.54623 21.90131,-4.90149 32.97461,-4.42382 z m -9.9375,8.22656 c 2.92366,-0.0588 2.08723,0.71392 -2.98047,1.75976 -3.20784,0.66205 -7.23828,1.85726 -8.95703,2.6543 l -3.125,1.44922 4.16602,-0.50977 c 8.14634,-0.99685 30.12187,-0.52216 36.24609,0.78321 22.26155,4.74499 40.37127,16.57187 51.7168,33.77539 3.74015,5.67125 7.58436,13.52203 8.58594,17.53515 0.71529,2.86606 -0.0242,2.34178 -3.11719,-2.21289 -10.84683,-15.97264 -28.931,-27.62836 -47.89453,-30.86914 -13.93016,-2.38056 -29.55304,-0.72985 -42.90235,4.53516 -5.23435,2.06445 -5.8336,1.39776 -2.24804,-2.50195 l 3.08593,-3.35352 -3.47265,0.48633 c -1.90973,0.26822 -4.09744,0.64138 -4.86133,0.82812 -1.01238,0.24748 -0.74378,-0.22726 0.98828,-1.75195 11.08769,-9.76023 51.52741,-7.57062 72.27539,3.91406 5.7823,3.20069 4.07257,1.03951 -3.02929,-3.83007 -10.31647,-7.0738 -18.31256,-10.60593 -29.60938,-13.07813 -4.7282,-1.03472 -8.80491,-1.28944 -20.48633,-1.27734 -15.63005,0.0162 -22.5934,0.89086 -32.72851,4.10937 -2.8151,0.89396 -5.11914,1.37651 -5.11914,1.07227 0,-0.75597 6.39199,-4.94044 11.46093,-7.50196 5.82766,-2.94487 12.1185,-4.93907 17.84571,-5.6582 1.79292,-0.22513 3.1856,-0.33782 4.16015,-0.35742 z m -27.90039,26.02344 c 1.12146,0 0.85023,0.48105 -1.42773,2.53906 -6.08,5.49287 -12.14228,13.64058 -21.54492,28.95508 -2.07556,3.38051 -5.75678,8.30242 -8.17969,10.9375 -2.42292,2.63503 -4.59214,4.79101 -4.82227,4.79101 -0.23013,0 0.54503,-1.01649 1.72461,-2.25781 2.64486,-2.78327 4.1372,-5.72982 8.6211,-17.02148 4.51836,-12.10045 10.72977,-26.55082 25.6289,-27.94336 z m 23.42774,10.75976 c 0.36382,0.11662 -0.26909,1.45006 -1.88282,3.67774 -2.93316,4.04912 -8.22046,7.78605 -17.31836,12.24218 -6.80199,3.33165 -10.1268,4.65308 -9.03906,3.59375 0.15914,-0.15499 5.75738,-3.94588 12.44141,-8.42382 6.68398,-4.47797 13.01215,-8.93933 14.0625,-9.91602 0.94109,-0.8751 1.51803,-1.2438 1.73633,-1.17383 z m 13.29492,1.31641 c 0.11995,-0.0484 0.19228,-0.0292 0.21484,0.0566 0.0902,0.34329 -0.60034,1.75033 -2.09375,4.14648 -2.67546,4.29281 -8.83483,9.78618 -17.14648,15.29297 -12.89774,8.54527 -18.6873,11.41782 -10.39649,5.15821 2.11082,-1.59368 3.70764,-3.02674 3.54883,-3.18555 -0.49235,-0.49235 -14.19047,7.43024 -19.78125,11.4414 -10.87599,7.80319 -15.02617,12.13659 -20.76172,21.67969 -4.67486,7.77832 -4.7518,9.23577 -0.13672,2.60547 3.30375,-4.74631 14.14835,-15.91793 18.01368,-18.55664 1.33677,-0.91259 -1.02842,1.91171 -5.25586,6.27734 -8.13656,8.40251 -13.26196,14.92812 -19.3711,24.65821 -5.93828,9.458 -9.05127,18.50628 -10.81054,31.41601 -1.04582,7.6742 -2.04505,7.35602 -1.23243,-0.39258 2.00399,-19.10843 9.67004,-39.70679 19.92579,-53.53906 8.21704,-11.0826 16.57195,-17.28364 38.83984,-28.82617 15.49228,-8.03041 19.40287,-10.62118 24.0625,-15.93555 1.22515,-1.3973 2.02099,-2.15174 2.38086,-2.29687 z m 0.48633,17.9668 c 0.18465,0.18462 -2.09933,1.83288 -5.07422,3.6621 -17.6511,10.85352 -36.93023,27.32523 -47.72071,40.77344 -2.92723,3.64828 -3.99637,4.34792 -2.12695,1.39063 7.79952,-12.33842 22.5036,-26.68806 36.80078,-35.91407 6.98662,-4.50842 17.67722,-10.35597 18.1211,-9.9121 z m -10.08789,19.09374 c -1.789,2.80178 -3.38422,5.81948 -4.85743,8.9629 -0.003,0.007 -0.008,0.014 -0.0117,0.0215 -6.26878,3.23001 -13.99192,8.08699 -18.9004,12.27539 -11.56502,9.8685 -26.2991,30.94303 -31.50781,45.07031 -0.67204,1.82275 -1.37591,3.15925 -1.56445,2.97071 -1.00763,-1.00764 5.35666,-17.48818 10.27344,-26.60352 9.73972,-18.05681 27.6549,-34.29263 46.56836,-42.69727 z m -13.41016,22.5586 c 0.30042,-0.0648 0.50314,-0.0633 0.58398,0.0176 0.19126,0.19126 -1.30769,1.35273 -3.33203,2.58203 -11.80617,7.16941 -19.4497,15.07889 -24.50195,25.35742 -4.41559,8.98318 -6.13227,16.23461 -6.16797,26.04297 -0.0273,7.49128 0.17563,8.7008 3.27344,19.53125 4.64907,16.25398 5.99333,23.23835 6.47656,33.63672 0.50443,10.85477 -0.73951,19.70264 -4.34375,30.90039 -3.2692,10.15687 -8.23777,19.6806 -18.09961,34.69336 -10.40193,15.83488 -16.63266,26.69221 -21.51172,37.48437 -3.91265,8.65463 -7.66687,19.14283 -7.92969,22.08203 -0.19801,-2.41267 -0.32751,-4.77183 -0.39062,-7.06836 -1.1e-4,-0.004 1.1e-4,-0.009 0,-0.0137 -2e-5,-6.7e-4 2e-5,-10e-4 0,-0.002 -0.0629,-2.3 -0.0597,-4.53682 0.006,-6.69922 0.0988,-2.62733 0.25047,-4.70287 0.41016,-6.71094 0.003,-0.0298 0.009,-0.0542 0.0117,-0.084 0.29259,-3.22613 0.73202,-6.18707 1.24024,-8.95508 0.19225,-1.05203 0.41482,-2.00315 0.63086,-2.98242 0.4102,-1.84571 0.84519,-3.58326 1.32031,-5.14844 0.2243,-0.74273 0.44317,-1.50828 0.67774,-2.18359 0.71978,-2.05878 1.46944,-3.93113 2.23046,-5.3086 2.62992,-4.72269 6.47371,-10.88473 9.83594,-15.4414 2.11452,-2.86571 5.75132,-7.79237 8.08008,-10.94922 2.32876,-3.15686 5.09686,-7.30317 6.15234,-9.21289 l 1.91992,-3.47266 -2.9746,3.125 c -1.63536,1.71875 -6.58301,6.25231 -10.9961,10.07422 -5.92468,5.13105 -9.0245,8.43681 -11.8457,12.63281 -2.10139,3.12546 -3.9292,5.57276 -4.0625,5.43946 -0.58063,-0.58063 4.13787,-10.41286 7.23047,-15.06641 1.86129,-2.80077 6.6926,-8.37435 10.73633,-12.38477 8.17738,-8.11 10.79985,-11.61921 14.23437,-19.05273 1.94799,-4.21617 5.29197,-14.6345 6.75781,-21.05078 0.57639,-2.523 -0.58645,-1.79466 -1.94531,1.21875 -0.68992,1.52998 -1.72843,3.17125 -2.30859,3.64648 -0.90957,0.74509 -0.98152,0.62398 -0.52735,-0.87304 2.53447,-8.35408 3.17163,-12.62364 3.11133,-20.83399 -0.0351,-4.77426 -0.3008,-9.46115 -0.58984,-10.41601 l -0.52539,-1.73633 -0.37891,1.73633 c -0.20837,0.95486 -0.75217,4.23546 -1.20898,7.29101 -1.30197,8.7088 -5.82527,20.21744 -9.68946,24.6543 -1.70049,1.9525 -1.66153,1.7488 0.58789,-3.125 3.19262,-6.91729 4.09498,-11.70483 5.63282,-29.86133 2.51529,-29.6972 7.72014,-49.67253 16.1914,-62.15234 3.63086,-5.34896 8.93658,-11.0926 13.29883,-14.39453 3.68743,-2.79117 10.59627,-6.5131 12.69922,-6.9668 z m -7.48633,86.72461 c 0.37999,-0.27859 0.46111,4.79586 0.28906,15.1914 -0.55032,33.25012 -1.08061,38.65288 -5.16992,52.68165 -4.19425,14.38888 -7.91114,22.62638 -18.37305,40.7207 -10.20054,17.64235 -15.30689,28.90884 -19.17187,42.29492 -2.05445,7.11543 -2.49833,5.7487 -0.6543,-2.01562 2.29552,-9.66536 7.79293,-23.36551 16.77735,-41.81055 11.64596,-23.90921 14.08009,-29.9809 17.61914,-43.95508 2.96784,-11.71884 4.23366,-20.5647 6.60547,-46.17969 1.02014,-11.0173 1.69813,-16.64915 2.07812,-16.92773 z m 19.91406,59.04297 c 0.0734,0.12042 -0.25805,0.93582 -1.05273,2.50195 -4.67585,9.21501 -12.2495,30.23649 -15.71875,43.63086 -4.68088,18.0723 -5.48848,32.07677 -2.83984,49.25195 2.55737,16.58364 10.37177,37.5582 19.19531,51.5293 3.6973,5.85429 2.07143,4.99305 -6.52344,-3.45508 -16.2031,-15.92645 -23.52109,-34.88921 -22.4375,-58.14453 0.7274,-15.61107 4.57153,-33.35608 10.53906,-48.65234 3.52738,-9.04152 11.56747,-25.66468 15.34571,-31.72852 2.12046,-3.4033 3.36977,-5.1343 3.49218,-4.93359 z m 73.52149,17.39258 c 0.12655,0.12651 -1.85753,1.6221 -4.4082,3.32421 -6.16974,4.11719 -16.1782,13.8147 -20.30665,19.67383 -5.25909,7.46383 -7.19928,12.85506 -10.10156,28.08399 -0.16377,0.85938 -0.49268,1.5625 -0.73242,1.5625 -0.70423,0 0.35945,-10.16059 1.55078,-14.81446 3.16879,-12.37861 12.35678,-24.66246 24.60547,-32.89453 3.56473,-2.39578 9.04983,-5.2783 9.39258,-4.93554 z m 27.24219,3.76953 c 0.13638,0.10678 0.14856,0.59695 0.15429,1.39062 0.0246,3.40217 -3.04403,14.58047 -5.88672,21.44336 -10.57273,25.52503 -13.85493,35.7864 -14.61914,45.70313 -0.21153,2.74487 -0.57553,6.08507 -0.80859,7.42187 l -0.42383,2.42969 -0.54101,-2.77735 c -1.99912,-10.25914 1.31284,-31.7441 7.3125,-47.4414 2.66777,-6.97996 8.65508,-18.97959 12.53906,-25.12891 1.17759,-1.86442 1.78112,-2.80624 2.09179,-3.01758 0.0777,-0.0528 0.13618,-0.059 0.18165,-0.0234 z m -11.01172,1.47656 c 0.0986,0.10152 0.0118,0.44666 -0.19922,0.98437 -1.416,3.60877 -8.22201,16.61743 -14.65235,28.00196 -6.58137,11.65199 -11.19794,21.90238 -14.58984,32.39453 -2.63547,8.15229 -5.43643,19.37704 -6.30078,25.2539 l -0.50977,3.47266 -0.63867,-2.43164 c -0.35087,-1.33681 -0.66782,-6.80516 -0.70312,-12.15234 -0.0498,-7.52983 0.27575,-11.3171 1.44336,-16.79688 4.24446,-19.92008 12.93577,-35.63756 28.58984,-51.70508 5.29977,-5.43973 7.26478,-7.32604 7.56055,-7.02148 z m -60.21094,28.0625 c 0.0909,-0.0443 0.17013,-0.035 0.23633,0.0312 0.14737,0.14737 -0.36612,2.2857 -1.14063,4.75195 -3.48742,11.10498 -4.35298,17.11585 -4.39648,30.52539 -0.0471,14.51114 0.84902,20.23952 4.83203,30.90235 2.69624,7.21803 1.41344,6.09815 -1.76758,-1.54297 -4.90846,-11.79071 -6.81262,-29.61902 -4.56836,-42.78516 1.47494,-8.65283 5.44189,-21.21867 6.80469,-21.88281 z m -64.3418,16.70312 c 0.19963,0.19963 -0.74359,3.10703 -2.0957,6.46094 -3.95332,9.80616 -8.5364,24.73312 -10.17969,33.1543 -1.64951,8.45302 -2.14189,23.19071 -1.0664,31.9414 0.31683,2.57812 0.42069,4.6875 0.23046,4.6875 -0.53305,0 -3.13317,-8.22594 -3.95117,-12.5 -1.28239,-6.70048 -0.97042,-18.41458 0.66407,-24.9707 2.22855,-8.93908 15.30768,-39.86419 16.39843,-38.77344 z m 48.48633,1.42774 c 0.45191,4.39625 -3.51627,19.00135 0.15234,42.17578 1.99645,12.61123 8.65209,28.64585 16.63282,40.07031 6.591,9.43511 -6.4136,1.76571 -9.33203,-0.5918 -5.28489,-4.26907 -16.71777,-29.49399 -10.87891,-67.43164 0.88648,-5.75979 2.80216,-13.27627 3.42578,-14.22265 z"
       inkscape:original-d="m 639.99609,67.228516 v 30.863281 c 10e-4,0.0013 0.003,0.0026 0.004,0.0039 14.6865,-13.685817 0.80092,-12.452644 25.55859,-30 -0.0188,-0.0011 -0.0378,-8.27e-4 -0.0566,-0.002 C 656.8839,67.577018 647.99418,67.28826 640,67.228516 Z m 51.19336,9.066406 c -3.01302,0.01345 -6.09232,0.210912 -9.23828,0.613281 -5.26674,2.469396 -9.65277,6.985199 -14.68555,12.365235 -9.9839,10.67282 -16.47077,27.091012 -17.32031,43.833982 -0.45164,8.90117 0.37553,9.16498 2.1875,0.69531 2.29125,-10.70989 9.39404,-23.2897 17.47266,-30.94531 8.08901,-7.665435 15.7609,-11.896735 26.43555,-14.582029 10.79771,-3.401427 26.22664,-0.694491 38.02929,0.626953 -0.005,-0.0027 -0.009,-0.0051 -0.0137,-0.0078 -1.20428,-0.710299 -2.44545,-1.382411 -3.66016,-2.085937 C 718.72003,80.504123 705.73159,76.23 691.18945,76.294922 Z m -8.7832,29.035158 -2.88477,3.125 c -3.6976,4.00558 -7.072,9.02359 -11.9082,17.70898 -11.50303,20.65849 -18.66304,45.08221 -18.52734,63.19336 0.0571,7.61748 0.25812,7.3921 2.6875,-3 4.33086,-18.52623 16.50084,-38.42125 29.44336,-48.13476 15.94295,-11.9654 32.92378,-17.16737 53.49609,-16.38672 14.95095,0.56734 26.87191,3.81301 36.55078,9.86914 -1.75519,-1.60687 -3.54887,-3.04224 -5.34375,-4.46875 -0.66944,-0.53282 -1.32959,-1.10645 -2.0039,-1.61524 -1.8164,-1.36777 -3.65402,-2.61562 -5.5,-3.8125 -0.61169,-0.39779 -1.22157,-0.80588 -1.83594,-1.18554 -1.97476,-1.21632 -3.9625,-2.34576 -5.95899,-3.38086 -0.40466,-0.21046 -0.80954,-0.414 -1.21484,-0.61719 -2.20145,-1.10035 -4.4093,-2.12575 -6.62305,-3.02148 -0.002,-7.8e-4 -0.004,-0.001 -0.006,-0.002 -6.5e-4,-4e-5 -0.001,5e-5 -0.002,0 -4.55687,-0.32088 -9.10632,-0.26937 -13.63672,-0.27539 -16.2522,-0.0216 -30.69996,4.73794 -43.67578,14.38672 -5.25828,3.91008 -10.74023,9.2591 -10.74023,10.47852 0,0.31059 -1.90052,2.55546 -4.22266,4.98828 -2.32214,2.43282 -5.27495,6.47325 -6.5625,8.98047 -1.83264,3.56866 -2.3483,4.17175 -2.375,2.77539 -0.0619,-3.22987 1.96984,-8.54356 5.50977,-14.40625 2.11142,-3.49694 4.56985,-9.02457 6.23242,-14.01563 1.50987,-4.5326 4.17573,-11.15392 5.92383,-14.71289 z m 47.52344,36.23633 c -15.64953,0.67509 -32.64859,6.22271 -45.13867,14.73047 -7.43327,5.0632 -16.70694,14.98249 -21.17188,22.64453 -1.99897,3.43029 -1.29491,2.74965 3.59766,-3.47266 12.10438,-15.39431 29.85095,-25.97756 51.41601,-30.66406 8.92523,-1.93965 29.99642,-1.77205 38.26172,0.30469 6.68698,1.68012 7.60259,1.81417 6.00977,0.88085 -4.34549,-2.54623 -21.90131,-4.90149 -32.97461,-4.42382 z m 9.9375,8.22656 c -2.92366,-0.0588 -2.08723,0.71392 2.98047,1.75976 3.20784,0.66205 7.23828,1.85726 8.95703,2.6543 l 3.125,1.44922 -4.16602,-0.50977 c -8.14634,-0.99685 -30.12187,-0.52216 -36.24609,0.78321 -22.26155,4.74499 -40.37127,16.57187 -51.7168,33.77539 -3.74015,5.67125 -7.58436,13.52203 -8.58594,17.53515 -0.71529,2.86606 0.0242,2.34178 3.11719,-2.21289 10.84683,-15.97264 28.931,-27.62836 47.89453,-30.86914 13.93016,-2.38056 29.55304,-0.72985 42.90235,4.53516 5.23435,2.06445 5.8336,1.39776 2.24804,-2.50195 l -3.08593,-3.35352 3.47265,0.48633 c 1.90973,0.26822 4.09744,0.64138 4.86133,0.82812 1.01238,0.24748 0.74378,-0.22726 -0.98828,-1.75195 -11.08769,-9.76023 -51.52741,-7.57062 -72.27539,3.91406 -5.7823,3.20069 -4.07257,1.03951 3.02929,-3.83007 10.31647,-7.0738 18.31256,-10.60593 29.60938,-13.07813 4.7282,-1.03472 8.80491,-1.28944 20.48633,-1.27734 15.63005,0.0162 22.5934,0.89086 32.72851,4.10937 2.8151,0.89396 5.11914,1.37651 5.11914,1.07227 0,-0.75597 -6.39199,-4.94044 -11.46093,-7.50196 -5.82766,-2.94487 -12.1185,-4.93907 -17.84571,-5.6582 -1.79292,-0.22513 -3.1856,-0.33782 -4.16015,-0.35742 z m 27.90039,26.02344 c -1.12146,0 -0.85023,0.48105 1.42773,2.53906 6.08,5.49287 12.14228,13.64058 21.54492,28.95508 2.07556,3.38051 5.75678,8.30242 8.17969,10.9375 2.42292,2.63503 4.59214,4.79101 4.82227,4.79101 0.23013,0 -0.54503,-1.01649 -1.72461,-2.25781 -2.64486,-2.78327 -4.1372,-5.72982 -8.6211,-17.02148 -4.51836,-12.10045 -10.72977,-26.55082 -25.6289,-27.94336 z m -23.42774,10.75976 c -0.36382,0.11662 0.26909,1.45006 1.88282,3.67774 2.93316,4.04912 8.22046,7.78605 17.31836,12.24218 6.80199,3.33165 10.1268,4.65308 9.03906,3.59375 -0.15914,-0.15499 -5.75738,-3.94588 -12.44141,-8.42382 -6.68398,-4.47797 -13.01215,-8.93933 -14.0625,-9.91602 -0.94109,-0.8751 -1.51803,-1.2438 -1.73633,-1.17383 z m -13.29492,1.31641 c -0.11995,-0.0484 -0.19228,-0.0292 -0.21484,0.0566 -0.0902,0.34329 0.60034,1.75033 2.09375,4.14648 2.67546,4.29281 8.83483,9.78618 17.14648,15.29297 12.89774,8.54527 18.6873,11.41782 10.39649,5.15821 -2.11082,-1.59368 -3.70764,-3.02674 -3.54883,-3.18555 0.49235,-0.49235 14.19047,7.43024 19.78125,11.4414 10.87599,7.80319 15.02617,12.13659 20.76172,21.67969 4.67486,7.77832 4.7518,9.23577 0.13672,2.60547 -3.30375,-4.74631 -14.14835,-15.91793 -18.01368,-18.55664 -1.33677,-0.91259 1.02842,1.91171 5.25586,6.27734 8.13656,8.40251 13.26196,14.92812 19.3711,24.65821 5.93828,9.458 9.05127,18.50628 10.81054,31.41601 1.04582,7.6742 2.04505,7.35602 1.23243,-0.39258 -2.00399,-19.10843 -9.67004,-39.70679 -19.92579,-53.53906 -8.21704,-11.0826 -16.57195,-17.28364 -38.83984,-28.82617 -15.49228,-8.03041 -19.40287,-10.62118 -24.0625,-15.93555 -1.22515,-1.3973 -2.02099,-2.15174 -2.38086,-2.29687 z m -0.48633,17.9668 c -0.18465,0.18462 2.09933,1.83288 5.07422,3.6621 17.6511,10.85352 36.93023,27.32523 47.72071,40.77344 2.92723,3.64828 3.99637,4.34792 2.12695,1.39063 -7.79952,-12.33842 -22.5036,-26.68806 -36.80078,-35.91407 -6.98662,-4.50842 -17.67722,-10.35597 -18.1211,-9.9121 z m 10.08789,19.09374 c 1.789,2.80178 3.38422,5.81948 4.85743,8.9629 0.003,0.007 0.008,0.014 0.0117,0.0215 6.26878,3.23001 13.99192,8.08699 18.9004,12.27539 11.56502,9.8685 26.2991,30.94303 31.50781,45.07031 0.67204,1.82275 1.37591,3.15925 1.56445,2.97071 1.00763,-1.00764 -5.35666,-17.48818 -10.27344,-26.60352 -9.73972,-18.05681 -27.6549,-34.29263 -46.56836,-42.69727 z m 13.41016,22.5586 c -0.30042,-0.0648 -0.50314,-0.0633 -0.58398,0.0176 -0.19126,0.19126 1.30769,1.35273 3.33203,2.58203 11.80617,7.16941 19.4497,15.07889 24.50195,25.35742 4.41559,8.98318 6.13227,16.23461 6.16797,26.04297 0.0273,7.49128 -0.17563,8.7008 -3.27344,19.53125 -4.64907,16.25398 -5.99333,23.23835 -6.47656,33.63672 -0.50443,10.85477 0.73951,19.70264 4.34375,30.90039 3.2692,10.15687 8.23777,19.6806 18.09961,34.69336 10.40193,15.83488 16.63266,26.69221 21.51172,37.48437 3.91265,8.65463 7.66687,19.14283 7.92969,22.08203 0.19801,-2.41267 0.32751,-4.77183 0.39062,-7.06836 1.1e-4,-0.004 -1.1e-4,-0.009 0,-0.0137 2e-5,-6.7e-4 -2e-5,-0.001 0,-0.002 0.0629,-2.3 0.0597,-4.53682 -0.006,-6.69922 -0.0988,-2.62733 -0.25047,-4.70287 -0.41016,-6.71094 -0.003,-0.0298 -0.009,-0.0542 -0.0117,-0.084 -0.29259,-3.22613 -0.73202,-6.18707 -1.24024,-8.95508 -0.19225,-1.05203 -0.41482,-2.00315 -0.63086,-2.98242 -0.4102,-1.84571 -0.84519,-3.58326 -1.32031,-5.14844 -0.2243,-0.74273 -0.44317,-1.50828 -0.67774,-2.18359 -0.71978,-2.05878 -1.46944,-3.93113 -2.23046,-5.3086 -2.62992,-4.72269 -6.47371,-10.88473 -9.83594,-15.4414 -2.11452,-2.86571 -5.75132,-7.79237 -8.08008,-10.94922 -2.32876,-3.15686 -5.09686,-7.30317 -6.15234,-9.21289 l -1.91992,-3.47266 2.9746,3.125 c 1.63536,1.71875 6.58301,6.25231 10.9961,10.07422 5.92468,5.13105 9.0245,8.43681 11.8457,12.63281 2.10139,3.12546 3.9292,5.57276 4.0625,5.43946 0.58063,-0.58063 -4.13787,-10.41286 -7.23047,-15.06641 -1.86129,-2.80077 -6.6926,-8.37435 -10.73633,-12.38477 -8.17738,-8.11 -10.79985,-11.61921 -14.23437,-19.05273 -1.94799,-4.21617 -5.29197,-14.6345 -6.75781,-21.05078 -0.57639,-2.523 0.58645,-1.79466 1.94531,1.21875 0.68992,1.52998 1.72843,3.17125 2.30859,3.64648 0.90957,0.74509 0.98152,0.62398 0.52735,-0.87304 -2.53447,-8.35408 -3.17163,-12.62364 -3.11133,-20.83399 0.0351,-4.77426 0.3008,-9.46115 0.58984,-10.41601 l 0.52539,-1.73633 0.37891,1.73633 c 0.20837,0.95486 0.75217,4.23546 1.20898,7.29101 1.30197,8.7088 5.82527,20.21744 9.68946,24.6543 1.70049,1.9525 1.66153,1.7488 -0.58789,-3.125 -3.19262,-6.91729 -4.09498,-11.70483 -5.63282,-29.86133 -2.51529,-29.6972 -7.72014,-49.67253 -16.1914,-62.15234 -3.63086,-5.34896 -8.93658,-11.0926 -13.29883,-14.39453 -3.68743,-2.79117 -10.59627,-6.5131 -12.69922,-6.9668 z m 7.48633,86.72461 c -0.37999,-0.27859 -0.46111,4.79586 -0.28906,15.1914 0.55032,33.25012 1.08061,38.65288 5.16992,52.68165 4.19425,14.38888 7.91114,22.62638 18.37305,40.7207 10.20054,17.64235 15.30689,28.90884 19.17187,42.29492 2.05445,7.11543 2.49833,5.7487 0.6543,-2.01562 -2.29552,-9.66536 -7.79293,-23.36551 -16.77735,-41.81055 -11.64596,-23.90921 -14.08009,-29.9809 -17.61914,-43.95508 -2.96784,-11.71884 -4.23366,-20.5647 -6.60547,-46.17969 -1.02014,-11.0173 -1.69813,-16.64915 -2.07812,-16.92773 z m -19.91406,59.04297 c -0.0734,0.12042 0.25805,0.93582 1.05273,2.50195 4.67585,9.21501 12.2495,30.23649 15.71875,43.63086 4.68088,18.0723 5.48848,32.07677 2.83984,49.25195 -2.55737,16.58364 -10.37177,37.5582 -19.19531,51.5293 -3.6973,5.85429 -2.07143,4.99305 6.52344,-3.45508 16.2031,-15.92645 23.52109,-34.88921 22.4375,-58.14453 -0.7274,-15.61107 -4.57153,-33.35608 -10.53906,-48.65234 -3.52738,-9.04152 -11.56747,-25.66468 -15.34571,-31.72852 -2.12046,-3.4033 -3.36977,-5.1343 -3.49218,-4.93359 z m -73.52149,17.39258 c -0.12655,0.12651 1.85753,1.6221 4.4082,3.32421 6.16974,4.11719 16.1782,13.8147 20.30665,19.67383 5.25909,7.46383 7.19928,12.85506 10.10156,28.08399 0.16377,0.85938 0.49268,1.5625 0.73242,1.5625 0.70423,0 -0.35945,-10.16059 -1.55078,-14.81446 -3.16879,-12.37861 -12.35678,-24.66246 -24.60547,-32.89453 -3.56473,-2.39578 -9.04983,-5.2783 -9.39258,-4.93554 z m -27.24219,3.76953 c -0.13638,0.10678 -0.14856,0.59695 -0.15429,1.39062 -0.0246,3.40217 3.04403,14.58047 5.88672,21.44336 10.57273,25.52503 13.85493,35.7864 14.61914,45.70313 0.21153,2.74487 0.57553,6.08507 0.80859,7.42187 l 0.42383,2.42969 0.54101,-2.77735 c 1.99912,-10.25914 -1.31284,-31.7441 -7.3125,-47.4414 -2.66777,-6.97996 -8.65508,-18.97959 -12.53906,-25.12891 -1.17759,-1.86442 -1.78112,-2.80624 -2.09179,-3.01758 -0.0777,-0.0528 -0.13618,-0.059 -0.18165,-0.0234 z m 11.01172,1.47656 c -0.0986,0.10152 -0.0118,0.44666 0.19922,0.98437 1.416,3.60877 8.22201,16.61743 14.65235,28.00196 6.58137,11.65199 11.19794,21.90238 14.58984,32.39453 2.63547,8.15229 5.43643,19.37704 6.30078,25.2539 l 0.50977,3.47266 0.63867,-2.43164 c 0.35087,-1.33681 0.66782,-6.80516 0.70312,-12.15234 0.0498,-7.52983 -0.27575,-11.3171 -1.44336,-16.79688 -4.24446,-19.92008 -12.93577,-35.63756 -28.58984,-51.70508 -5.29977,-5.43973 -7.26478,-7.32604 -7.56055,-7.02148 z m 60.21094,28.0625 c -0.0909,-0.0443 -0.17013,-0.035 -0.23633,0.0312 -0.14737,0.14737 0.36612,2.2857 1.14063,4.75195 3.48742,11.10498 4.35298,17.11585 4.39648,30.52539 0.0471,14.51114 -0.84902,20.23952 -4.83203,30.90235 -2.69624,7.21803 -1.41344,6.09815 1.76758,-1.54297 4.90846,-11.79071 6.81262,-29.61902 4.56836,-42.78516 -1.47494,-8.65283 -5.44189,-21.21867 -6.80469,-21.88281 z m 64.3418,16.70312 c -0.19963,0.19963 0.74359,3.10703 2.0957,6.46094 3.95332,9.80616 8.5364,24.73312 10.17969,33.1543 1.64951,8.45302 2.14189,23.19071 1.0664,31.9414 -0.31683,2.57812 -0.42069,4.6875 -0.23046,4.6875 0.53305,0 3.13317,-8.22594 3.95117,-12.5 1.28239,-6.70048 0.97042,-18.41458 -0.66407,-24.9707 -2.22855,-8.93908 -15.30768,-39.86419 -16.39843,-38.77344 z m -48.48633,1.42774 c -0.45191,4.39625 3.51627,19.00135 -0.15234,42.17578 -1.99645,12.61123 -8.65209,28.64585 -16.63282,40.07031 -6.591,9.43511 6.4136,1.76571 9.33203,-0.5918 5.28489,-4.26907 16.71777,-29.49399 10.87891,-67.43164 -0.88648,-5.75979 -2.80216,-13.27627 -3.42578,-14.22265 z" /></g></svg>
